<svg width="21" height="21" viewBox="0 0 21 21" fill="none" xmlns="http://www.w3.org/2000/svg">
<path d="M19.5181 5.32766C19.2412 4.69604 18.8418 4.12368 18.3424 3.64261C17.8427 3.16011 17.2535 2.77667 16.6068 2.51314C15.9363 2.2388 15.2171 2.09837 14.491 2.10002C13.4724 2.10002 12.4785 2.37476 11.6149 2.8937C11.4082 3.01784 11.212 3.15419 11.026 3.30275C10.84 3.15419 10.6438 3.01784 10.4371 2.8937C9.57345 2.37476 8.57961 2.10002 7.56097 2.10002C6.82746 2.10002 6.11669 2.23841 5.44517 2.51314C4.79638 2.7777 4.21164 3.15826 3.70955 3.64261C3.20952 4.12314 2.81009 4.69564 2.53388 5.32766C2.24668 5.98499 2.09998 6.68302 2.09998 7.4014C2.09998 8.07908 2.24048 8.78525 2.51942 9.50364C2.7529 10.104 3.08762 10.7267 3.51533 11.3556C4.19305 12.3507 5.12491 13.3886 6.28198 14.4407C8.19942 16.1848 10.0983 17.3896 10.1789 17.4384L10.6685 17.7477C10.8855 17.8841 11.1644 17.8841 11.3814 17.7477L11.8711 17.4384C11.9517 17.3875 13.8484 16.1848 15.7679 14.4407C16.925 13.3886 17.8569 12.3507 18.5346 11.3556C18.9623 10.7267 19.2991 10.104 19.5305 9.50364C19.8095 8.78525 19.95 8.07908 19.95 7.4014C19.952 6.68302 19.8053 5.98499 19.5181 5.32766ZM11.026 16.138C11.026 16.138 3.67029 11.496 3.67029 7.4014C3.67029 5.32766 5.41211 3.64668 7.56097 3.64668C9.07136 3.64668 10.3813 4.47699 11.026 5.6899C11.6707 4.47699 12.9806 3.64668 14.491 3.64668C16.6399 3.64668 18.3817 5.32766 18.3817 7.4014C18.3817 11.496 11.026 16.138 11.026 16.138Z" fill="#E76161"/>
</svg>
