<svg width="20" height="20" viewBox="0 0 20 20" fill="none" xmlns="http://www.w3.org/2000/svg">
<path d="M19.1741 4.90177C18.8749 4.20899 18.4435 3.58121 17.904 3.05355C17.3641 2.52432 16.7276 2.10375 16.029 1.81471C15.3046 1.5138 14.5277 1.35978 13.7433 1.36159C12.6429 1.36159 11.5692 1.66293 10.6362 2.23212C10.413 2.36828 10.2009 2.51784 10 2.68078C9.79911 2.51784 9.58706 2.36828 9.36384 2.23212C8.43081 1.66293 7.35715 1.36159 6.2567 1.36159C5.46429 1.36159 4.69643 1.51337 3.97099 1.81471C3.27009 2.10489 2.6384 2.5223 2.09599 3.05355C1.5558 3.58061 1.12429 4.20855 0.825897 4.90177C0.515629 5.62275 0.357147 6.38837 0.357147 7.17632C0.357147 7.91962 0.508933 8.69418 0.810272 9.48212C1.0625 10.1406 1.42411 10.8236 1.88617 11.5134C2.61831 12.6049 3.625 13.7433 4.875 14.8973C6.94643 16.8103 8.99777 18.1317 9.08483 18.1852L9.61384 18.5245C9.84822 18.6741 10.1496 18.6741 10.3839 18.5245L10.913 18.1852C11 18.1294 13.0491 16.8103 15.1228 14.8973C16.3728 13.7433 17.3795 12.6049 18.1116 11.5134C18.5737 10.8236 18.9375 10.1406 19.1875 9.48212C19.4888 8.69418 19.6406 7.91962 19.6406 7.17632C19.6429 6.38837 19.4844 5.62275 19.1741 4.90177Z" fill="#E76161"/>
</svg>
